M48
; DRILL file KiCad 10.0.0-10.0.0~ubuntu24.04.1 date 2026-04-07T17:28:48
; FORMAT={-:-/ absolute / metric / decimal}
; #@! TF.CreationDate,2026-04-07T17:28:48-07:00
; #@! TF.GenerationSoftware,Kicad,Pcbnew,10.0.0-10.0.0~ubuntu24.04.1
; #@! TF.FileFunction,Plated,1,2,PTH
FMAT,2
METRIC
; #@! TA.AperFunction,Plated,PTH,ViaDrill
T1C0.300
; #@! TA.AperFunction,Plated,PTH,ComponentDrill
T2C0.600
; #@! TA.AperFunction,Plated,PTH,ComponentDrill
T3C1.000
; #@! TA.AperFunction,Plated,PTH,ComponentDrill
T4C1.470
%
G90
G05
T1
X96.75Y123.25
X98.0Y132.4
X98.62Y107.2
X98.956Y136.5
X99.6Y123.8
X99.6Y122.6
X99.6Y107.8
X99.6Y106.6
X99.6Y94.25
X101.8Y132.4
X102.0Y123.8
X102.0Y122.6
X102.0Y107.8
X102.0Y106.6
X102.756Y107.31
X103.156Y136.5
X103.2Y89.0
X103.24Y95.19
X104.0Y123.25
X104.0Y95.6
X104.14Y90.77
X104.17Y94.31
X105.04Y89.89
X105.83Y92.52
X106.69Y91.66
X107.2Y92.8
X120.129Y46.879
X120.659Y47.409
X121.189Y47.939
X121.5Y51.0
X121.72Y48.47
X122.25Y49.0
X122.5Y63.25
X125.0Y49.75
X135.5Y58.0
X139.75Y67.25
X140.5Y51.0
X141.0Y55.456
X145.25Y67.25
X146.25Y62.75
X151.25Y71.0
X153.0Y63.75
X154.0Y65.75
X154.0Y64.5
X154.5Y72.5
X154.75Y74.0
X156.0Y49.25
X156.5Y62.25
X156.581Y68.5
X157.681Y68.5
X158.0Y63.75
X160.75Y49.5
X161.5Y61.5
X163.9Y56.25
X164.25Y71.0
X164.496Y46.838
X165.075Y47.315
X165.6Y47.85
X165.75Y63.0
X173.6Y57.15
X173.6Y52.4
X175.0Y62.25
X176.0Y60.75
X176.339Y61.75
X176.889Y50.894
X177.346Y50.299
X177.69Y49.633
X178.0Y48.95
X179.75Y65.75
X179.75Y59.75
T3
X182.23Y67.04
X182.23Y64.5
X182.23Y61.96
X184.77Y67.04
X184.77Y64.5
X184.77Y61.96
T4
X-6.469Y135.762
X-1.706Y116.712
X-1.706Y59.562
X-1.469Y136.262
X0.675Y97.662
X3.294Y117.212
X3.294Y60.062
X5.438Y78.612
X5.675Y98.162
X10.438Y79.112
X12.581Y135.762
X17.581Y136.262
X22.106Y116.712
X24.487Y59.562
X26.869Y97.662
X27.106Y117.212
X29.487Y60.062
X31.631Y135.762
X31.869Y98.162
X36.394Y78.612
X36.631Y136.262
X41.156Y116.712
X41.394Y79.112
X45.919Y97.662
X46.156Y117.212
X50.681Y135.762
X50.681Y59.562
X50.919Y98.162
X55.444Y78.612
X55.681Y136.262
X55.681Y60.062
X60.206Y116.712
X60.444Y79.112
X64.969Y97.662
X65.206Y117.212
X69.731Y135.762
X69.969Y98.162
X74.494Y78.612
X74.731Y136.262
X79.256Y116.712
X79.494Y79.112
X84.019Y97.662
X84.256Y117.212
X88.781Y135.762
X89.019Y98.162
X93.544Y78.612
X93.781Y136.262
X98.306Y116.712
X98.544Y79.112
X103.069Y97.662
X103.306Y117.212
X107.831Y135.762
X108.069Y98.162
X112.594Y78.612
X112.831Y136.262
X117.356Y116.712
X117.594Y79.112
X122.119Y97.662
X122.356Y117.212
X126.881Y135.762
X126.881Y59.562
X127.119Y98.162
X131.644Y78.612
X131.881Y136.262
X131.881Y60.062
X136.406Y116.712
X136.644Y79.112
X141.169Y97.662
X141.406Y117.212
X145.931Y135.762
X146.169Y98.162
X150.694Y78.612
X150.931Y136.262
X155.456Y116.712
X155.694Y79.112
X160.219Y97.662
X160.456Y117.212
X164.981Y135.762
X165.219Y98.162
X169.744Y78.612
X169.981Y136.262
X174.506Y116.712
X174.744Y79.112
X179.269Y97.662
X179.506Y117.212
X184.031Y135.762
X184.269Y98.162
X188.794Y78.612
X189.031Y136.262
X193.556Y116.712
X193.794Y79.112
X198.319Y97.662
X198.319Y59.562
X198.556Y117.212
X203.081Y135.762
X203.319Y98.162
X203.319Y60.062
X207.844Y78.612
X208.081Y136.262
X212.606Y116.712
X212.844Y79.112
X217.369Y97.662
X217.606Y117.212
X219.75Y59.562
X222.131Y135.762
X222.369Y98.162
X224.75Y60.062
X227.131Y136.262
X231.656Y116.712
X234.037Y78.612
X236.656Y117.212
X239.037Y79.112
X241.181Y59.562
X246.181Y60.062
X248.325Y97.662
X250.706Y135.762
X253.325Y98.162
X255.469Y116.712
X255.706Y136.262
X260.231Y78.612
X260.231Y59.562
X260.469Y117.212
X265.231Y79.112
X265.231Y60.062
X279.281Y135.762
X279.281Y116.712
X279.281Y97.662
X279.281Y78.612
X279.281Y59.562
X284.281Y136.262
X284.281Y117.212
X284.281Y98.162
X284.281Y79.112
X284.281Y60.062
T2
G00X96.486Y144.762
M15
G01X96.486Y144.162
M16
G05
G00X96.486Y140.832
M15
G01X96.486Y139.732
M16
G05
G00X105.126Y144.762
M15
G01X105.126Y144.162
M16
G05
G00X105.126Y140.832
M15
G01X105.126Y139.732
M16
G05
M30
