G04 #@! TF.GenerationSoftware,KiCad,Pcbnew,10.0.0-10.0.0~ubuntu24.04.1*
G04 #@! TF.CreationDate,2026-04-13T17:46:04-07:00*
G04 #@! TF.ProjectId,Keyboard,4b657962-6f61-4726-942e-6b696361645f,rev?*
G04 #@! TF.SameCoordinates,Original*
G04 #@! TF.FileFunction,Soldermask,Top*
G04 #@! TF.FilePolarity,Negative*
%FSLAX46Y46*%
G04 Gerber Fmt 4.6, Leading zero omitted, Abs format (unit mm)*
G04 Created by KiCad (PCBNEW 10.0.0-10.0.0~ubuntu24.04.1) date 2026-04-13 17:46:04*
%MOMM*%
%LPD*%
G01*
G04 APERTURE LIST*
%ADD10C,2.250000*%
%ADD11C,0.650000*%
%ADD12O,1.000000X1.600000*%
%ADD13O,1.000000X2.100000*%
G04 APERTURE END LIST*
D10*
X145931250Y135762500D03*
X150931250Y136262500D03*
X198318750Y97662500D03*
X203318750Y98162500D03*
X260231250Y59562500D03*
X265231250Y60062500D03*
X279281250Y116712500D03*
X284281250Y117212500D03*
X160218750Y97662500D03*
X165218750Y98162500D03*
X45918750Y97662500D03*
X50918750Y98162500D03*
X279281250Y135762500D03*
X284281250Y136262500D03*
X-6468750Y135762500D03*
X-1468750Y136262500D03*
X31631250Y135762500D03*
X36631250Y136262500D03*
X231656250Y116712500D03*
X236656250Y117212500D03*
X98306250Y116712500D03*
X103306250Y117212500D03*
X112593750Y78612500D03*
X117593750Y79112500D03*
X131643750Y78612500D03*
X136643750Y79112500D03*
X36393750Y78612500D03*
X41393750Y79112500D03*
X260231250Y78612500D03*
X265231250Y79112500D03*
X203081250Y135762500D03*
X208081250Y136262500D03*
X212606250Y116712500D03*
X217606250Y117212500D03*
X79256250Y116712500D03*
X84256250Y117212500D03*
X184031250Y135762500D03*
X189031250Y136262500D03*
X22106250Y116712500D03*
X27106250Y117212500D03*
X222131250Y135762500D03*
X227131250Y136262500D03*
X279281250Y59562500D03*
X284281250Y60062500D03*
X207843750Y78612500D03*
X212843750Y79112500D03*
X169743750Y78612500D03*
X174743750Y79112500D03*
X217368750Y97662500D03*
X222368750Y98162500D03*
X84018750Y97662500D03*
X89018750Y98162500D03*
X188793750Y78612500D03*
X193793750Y79112500D03*
X279281250Y97662500D03*
X284281250Y98162500D03*
X-1706250Y59562500D03*
X3293750Y60062500D03*
X50681250Y59562500D03*
X55681250Y60062500D03*
X88781250Y135762500D03*
X93781250Y136262500D03*
X279281250Y78612500D03*
X284281250Y79112500D03*
X-1706250Y116712500D03*
X3293750Y117212500D03*
X93543750Y78612500D03*
X98543750Y79112500D03*
X26868750Y97662500D03*
X31868750Y98162500D03*
X41156250Y116712500D03*
X46156250Y117212500D03*
X103068750Y97662500D03*
X108068750Y98162500D03*
X155456250Y116712500D03*
X160456250Y117212500D03*
X69731250Y135762500D03*
X74731250Y136262500D03*
X179268750Y97662500D03*
X184268750Y98162500D03*
X255468750Y116712500D03*
X260468750Y117212500D03*
X74493750Y78612500D03*
X79493750Y79112500D03*
X64968750Y97662500D03*
X69968750Y98162500D03*
X150693750Y78612500D03*
X155693750Y79112500D03*
X198318750Y59562500D03*
X203318750Y60062500D03*
X193556250Y116712500D03*
X198556250Y117212500D03*
X241181250Y59562500D03*
X246181250Y60062500D03*
X122118750Y97662500D03*
X127118750Y98162500D03*
X126881250Y135762500D03*
X131881250Y136262500D03*
X141168750Y97662500D03*
X146168750Y98162500D03*
X174506250Y116712500D03*
X179506250Y117212500D03*
X60206250Y116712500D03*
X65206250Y117212500D03*
X55443750Y78612500D03*
X60443750Y79112500D03*
X50681250Y135762500D03*
X55681250Y136262500D03*
X107831250Y135762500D03*
X112831250Y136262500D03*
X164981250Y135762500D03*
X169981250Y136262500D03*
X117356250Y116712500D03*
X122356250Y117212500D03*
X136406250Y116712500D03*
X141406250Y117212500D03*
X12581250Y135762500D03*
X17581250Y136262500D03*
D11*
X97916250Y140812500D03*
X103696250Y140812500D03*
D12*
X96486250Y144462500D03*
D13*
X96486250Y140282500D03*
D12*
X105126250Y144462500D03*
D13*
X105126250Y140282500D03*
M02*
