M48
; DRILL file KiCad 10.0.0-10.0.0~ubuntu24.04.1 date 2026-04-13T17:47:45
; FORMAT={-:-/ absolute / inch / decimal}
; #@! TF.CreationDate,2026-04-13T17:47:45-07:00
; #@! TF.GenerationSoftware,Kicad,Pcbnew,10.0.0-10.0.0~ubuntu24.04.1
; #@! TF.FileFunction,Plated,1,2,PTH
FMAT,2
INCH
; #@! TA.AperFunction,Plated,PTH,ViaDrill
T1C0.0118
; #@! TA.AperFunction,Plated,PTH,ComponentDrill
T2C0.0236
; #@! TA.AperFunction,Plated,PTH,ComponentDrill
T3C0.0394
; #@! TA.AperFunction,Plated,PTH,ComponentDrill
T4C0.0579
%
G90
G05
T1
X3.8091Y4.8524
X3.8583Y5.2126
X3.8827Y4.2205
X3.8959Y5.374
X3.9213Y4.874
X3.9213Y4.8268
X3.9213Y4.2441
X3.9213Y4.1969
X3.9213Y3.7106
X4.0079Y5.2126
X4.0157Y4.874
X4.0157Y4.8268
X4.0157Y4.2441
X4.0157Y4.1969
X4.0455Y4.2248
X4.0613Y5.374
X4.063Y3.5039
X4.0646Y3.7476
X4.0945Y4.8524
X4.0945Y3.7638
X4.1Y3.5736
X4.1012Y3.713
X4.1354Y3.539
X4.1665Y3.6425
X4.2004Y3.6087
X4.2205Y3.6535
X4.7295Y1.8456
X4.7504Y1.8665
X4.7712Y1.8874
X4.7835Y2.0079
X4.7921Y1.9083
X4.813Y1.9291
X4.8228Y2.4902
X4.9213Y1.9587
X5.3346Y2.2835
X5.502Y2.6476
X5.5315Y2.0079
X5.5512Y2.1833
X5.7185Y2.6476
X5.7579Y2.4705
X5.9547Y2.7953
X6.0236Y2.5098
X6.063Y2.5886
X6.063Y2.5394
X6.0827Y2.8543
X6.0925Y2.9134
X6.1417Y1.939
X6.1614Y2.4508
X6.1646Y2.6969
X6.2079Y2.6969
X6.2205Y2.5098
X6.3287Y1.9488
X6.3583Y2.4213
X6.4528Y2.2146
X6.4665Y2.7953
X6.4762Y1.844
X6.499Y1.8628
X6.5197Y1.8839
X6.5256Y2.4803
X6.8346Y2.25
X6.8346Y2.063
X6.8898Y2.4508
X6.9291Y2.3917
X6.9425Y2.4311
X6.9641Y2.0037
X6.9821Y1.9803
X6.9957Y1.954
X7.0079Y1.9272
X7.0768Y2.5886
X7.0768Y2.3524
T3
X7.1744Y2.6394
X7.1744Y2.5394
X7.1744Y2.4394
X7.2744Y2.6394
X7.2744Y2.5394
X7.2744Y2.4394
T4
X-0.2547Y5.345
X-0.0672Y4.595
X-0.0672Y2.345
X-0.0578Y5.3647
X0.0266Y3.845
X0.1297Y4.6147
X0.1297Y2.3647
X0.2141Y3.095
X0.2234Y3.8647
X0.4109Y3.1147
X0.4953Y5.345
X0.6922Y5.3647
X0.8703Y4.595
X0.9641Y2.345
X1.0578Y3.845
X1.0672Y4.6147
X1.1609Y2.3647
X1.2453Y5.345
X1.2547Y3.8647
X1.4328Y3.095
X1.4422Y5.3647
X1.6203Y4.595
X1.6297Y3.1147
X1.8078Y3.845
X1.8172Y4.6147
X1.9953Y5.345
X1.9953Y2.345
X2.0047Y3.8647
X2.1828Y3.095
X2.1922Y5.3647
X2.1922Y2.3647
X2.3703Y4.595
X2.3797Y3.1147
X2.5578Y3.845
X2.5672Y4.6147
X2.7453Y5.345
X2.7547Y3.8647
X2.9328Y3.095
X2.9422Y5.3647
X3.1203Y4.595
X3.1297Y3.1147
X3.3078Y3.845
X3.3172Y4.6147
X3.4953Y5.345
X3.5047Y3.8647
X3.6828Y3.095
X3.6922Y5.3647
X3.8703Y4.595
X3.8797Y3.1147
X4.0578Y3.845
X4.0672Y4.6147
X4.2453Y5.345
X4.2547Y3.8647
X4.4328Y3.095
X4.4422Y5.3647
X4.6203Y4.595
X4.6297Y3.1147
X4.8078Y3.845
X4.8172Y4.6147
X4.9953Y5.345
X4.9953Y2.345
X5.0047Y3.8647
X5.1828Y3.095
X5.1922Y5.3647
X5.1922Y2.3647
X5.3703Y4.595
X5.3797Y3.1147
X5.5578Y3.845
X5.5672Y4.6147
X5.7453Y5.345
X5.7547Y3.8647
X5.9328Y3.095
X5.9422Y5.3647
X6.1203Y4.595
X6.1297Y3.1147
X6.3078Y3.845
X6.3172Y4.6147
X6.4953Y5.345
X6.5047Y3.8647
X6.6828Y3.095
X6.6922Y5.3647
X6.8703Y4.595
X6.8797Y3.1147
X7.0578Y3.845
X7.0672Y4.6147
X7.2453Y5.345
X7.2547Y3.8647
X7.4328Y3.095
X7.4422Y5.3647
X7.6203Y4.595
X7.6297Y3.1147
X7.8078Y3.845
X7.8078Y2.345
X7.8172Y4.6147
X7.9953Y5.345
X8.0047Y3.8647
X8.0047Y2.3647
X8.1828Y3.095
X8.1922Y5.3647
X8.3703Y4.595
X8.3797Y3.1147
X8.5578Y3.845
X8.5672Y4.6147
X8.6516Y2.345
X8.7453Y5.345
X8.7547Y3.8647
X8.8484Y2.3647
X8.9422Y5.3647
X9.1203Y4.595
X9.2141Y3.095
X9.3172Y4.6147
X9.4109Y3.1147
X9.4953Y2.345
X9.6922Y2.3647
X9.7766Y3.845
X9.8703Y5.345
X9.9734Y3.8647
X10.0578Y4.595
X10.0672Y5.3647
X10.2453Y3.095
X10.2453Y2.345
X10.2547Y4.6147
X10.4422Y3.1147
X10.4422Y2.3647
X10.9953Y5.345
X10.9953Y4.595
X10.9953Y3.845
X10.9953Y3.095
X10.9953Y2.345
X11.1922Y5.3647
X11.1922Y4.6147
X11.1922Y3.8647
X11.1922Y3.1147
X11.1922Y2.3647
T2
G00X3.7987Y5.6993
M15
G01X3.7987Y5.6757
M16
G05
G00X3.7987Y5.5446
M15
G01X3.7987Y5.5013
M16
G05
G00X4.1388Y5.6993
M15
G01X4.1388Y5.6757
M16
G05
G00X4.1388Y5.5446
M15
G01X4.1388Y5.5013
M16
G05
M30
