G04 #@! TF.GenerationSoftware,KiCad,Pcbnew,10.0.0-10.0.0~ubuntu24.04.1*
G04 #@! TF.CreationDate,2026-04-13T17:46:04-07:00*
G04 #@! TF.ProjectId,Keyboard,4b657962-6f61-4726-942e-6b696361645f,rev?*
G04 #@! TF.SameCoordinates,Original*
G04 #@! TF.FileFunction,Soldermask,Bot*
G04 #@! TF.FilePolarity,Negative*
%FSLAX46Y46*%
G04 Gerber Fmt 4.6, Leading zero omitted, Abs format (unit mm)*
G04 Created by KiCad (PCBNEW 10.0.0-10.0.0~ubuntu24.04.1) date 2026-04-13 17:46:04*
%MOMM*%
%LPD*%
G01*
G04 APERTURE LIST*
G04 Aperture macros list*
%AMRoundRect*
0 Rectangle with rounded corners*
0 $1 Rounding radius*
0 $2 $3 $4 $5 $6 $7 $8 $9 X,Y pos of 4 corners*
0 Add a 4 corners polygon primitive as box body*
4,1,4,$2,$3,$4,$5,$6,$7,$8,$9,$2,$3,0*
0 Add four circle primitives for the rounded corners*
1,1,$1+$1,$2,$3*
1,1,$1+$1,$4,$5*
1,1,$1+$1,$6,$7*
1,1,$1+$1,$8,$9*
0 Add four rect primitives between the rounded corners*
20,1,$1+$1,$2,$3,$4,$5,0*
20,1,$1+$1,$4,$5,$6,$7,0*
20,1,$1+$1,$6,$7,$8,$9,0*
20,1,$1+$1,$8,$9,$2,$3,0*%
G04 Aperture macros list end*
%ADD10C,2.250000*%
%ADD11RoundRect,0.225000X0.375000X-0.225000X0.375000X0.225000X-0.375000X0.225000X-0.375000X-0.225000X0*%
%ADD12RoundRect,0.250000X0.450000X-0.325000X0.450000X0.325000X-0.450000X0.325000X-0.450000X-0.325000X0*%
%ADD13R,0.700000X1.000000*%
%ADD14R,0.700000X0.600000*%
%ADD15RoundRect,0.250000X0.325000X0.450000X-0.325000X0.450000X-0.325000X-0.450000X0.325000X-0.450000X0*%
%ADD16C,0.650000*%
%ADD17R,0.600000X2.450000*%
%ADD18R,0.300000X2.450000*%
%ADD19RoundRect,0.250000X-0.450000X0.325000X-0.450000X-0.325000X0.450000X-0.325000X0.450000X0.325000X0*%
%ADD20RoundRect,0.250001X-0.624999X0.462499X-0.624999X-0.462499X0.624999X-0.462499X0.624999X0.462499X0*%
%ADD21RoundRect,0.250000X-0.325000X-0.450000X0.325000X-0.450000X0.325000X0.450000X-0.325000X0.450000X0*%
%ADD22C,1.700000*%
%ADD23R,1.700000X1.700000*%
%ADD24RoundRect,0.250000X0.650000X-0.800000X0.650000X0.800000X-0.650000X0.800000X-0.650000X-0.800000X0*%
%ADD25R,1.800000X1.100000*%
%ADD26RoundRect,0.137500X-0.137500X0.600000X-0.137500X-0.600000X0.137500X-0.600000X0.137500X0.600000X0*%
%ADD27RoundRect,0.137500X-0.600000X0.137500X-0.600000X-0.137500X0.600000X-0.137500X0.600000X0.137500X0*%
G04 APERTURE END LIST*
D10*
X248325000Y97662500D03*
X253325000Y98162500D03*
X234037500Y78612500D03*
X239037500Y79112500D03*
X145931250Y135762500D03*
X150931250Y136262500D03*
X198318750Y97662500D03*
X203318750Y98162500D03*
X260231250Y59562500D03*
X265231250Y60062500D03*
X279281250Y116712500D03*
X284281250Y117212500D03*
X160218750Y97662500D03*
X165218750Y98162500D03*
X45918750Y97662500D03*
X50918750Y98162500D03*
X126881250Y59562500D03*
X131881250Y60062500D03*
X279281250Y135762500D03*
X284281250Y136262500D03*
X5437500Y78612500D03*
X10437500Y79112500D03*
X-6468750Y135762500D03*
X-1468750Y136262500D03*
X31631250Y135762500D03*
X36631250Y136262500D03*
X231656250Y116712500D03*
X236656250Y117212500D03*
X98306250Y116712500D03*
X103306250Y117212500D03*
X112593750Y78612500D03*
X117593750Y79112500D03*
X131643750Y78612500D03*
X136643750Y79112500D03*
X36393750Y78612500D03*
X41393750Y79112500D03*
X260231250Y78612500D03*
X265231250Y79112500D03*
X203081250Y135762500D03*
X208081250Y136262500D03*
X212606250Y116712500D03*
X217606250Y117212500D03*
X79256250Y116712500D03*
X84256250Y117212500D03*
X184031250Y135762500D03*
X189031250Y136262500D03*
X22106250Y116712500D03*
X27106250Y117212500D03*
X222131250Y135762500D03*
X227131250Y136262500D03*
X279281250Y59562500D03*
X284281250Y60062500D03*
X207843750Y78612500D03*
X212843750Y79112500D03*
X169743750Y78612500D03*
X174743750Y79112500D03*
X217368750Y97662500D03*
X222368750Y98162500D03*
X84018750Y97662500D03*
X89018750Y98162500D03*
X188793750Y78612500D03*
X193793750Y79112500D03*
X279281250Y97662500D03*
X284281250Y98162500D03*
X-1706250Y59562500D03*
X3293750Y60062500D03*
X50681250Y59562500D03*
X55681250Y60062500D03*
X88781250Y135762500D03*
X93781250Y136262500D03*
X279281250Y78612500D03*
X284281250Y79112500D03*
X-1706250Y116712500D03*
X3293750Y117212500D03*
X93543750Y78612500D03*
X98543750Y79112500D03*
X26868750Y97662500D03*
X31868750Y98162500D03*
X41156250Y116712500D03*
X46156250Y117212500D03*
X103068750Y97662500D03*
X108068750Y98162500D03*
X155456250Y116712500D03*
X160456250Y117212500D03*
X69731250Y135762500D03*
X74731250Y136262500D03*
X179268750Y97662500D03*
X184268750Y98162500D03*
X255468750Y116712500D03*
X260468750Y117212500D03*
X74493750Y78612500D03*
X79493750Y79112500D03*
X64968750Y97662500D03*
X69968750Y98162500D03*
X150693750Y78612500D03*
X155693750Y79112500D03*
X198318750Y59562500D03*
X203318750Y60062500D03*
X24487500Y59562500D03*
X29487500Y60062500D03*
X193556250Y116712500D03*
X198556250Y117212500D03*
X241181250Y59562500D03*
X246181250Y60062500D03*
X250706250Y135762500D03*
X255706250Y136262500D03*
X122118750Y97662500D03*
X127118750Y98162500D03*
X126881250Y135762500D03*
X131881250Y136262500D03*
X675000Y97662500D03*
X5675000Y98162500D03*
X141168750Y97662500D03*
X146168750Y98162500D03*
X174506250Y116712500D03*
X179506250Y117212500D03*
X60206250Y116712500D03*
X65206250Y117212500D03*
X55443750Y78612500D03*
X60443750Y79112500D03*
X219750000Y59562500D03*
X224750000Y60062500D03*
X50681250Y135762500D03*
X55681250Y136262500D03*
X107831250Y135762500D03*
X112831250Y136262500D03*
X164981250Y135762500D03*
X169981250Y136262500D03*
X117356250Y116712500D03*
X122356250Y117212500D03*
X136406250Y116712500D03*
X141406250Y117212500D03*
X12581250Y135762500D03*
X17581250Y136262500D03*
D11*
X123825000Y127668750D03*
X123825000Y130968750D03*
X95250000Y108681250D03*
X95250000Y111981250D03*
X161925000Y127731250D03*
X161925000Y131031250D03*
X257175000Y70581250D03*
X257175000Y73881250D03*
X216693750Y51468750D03*
X216693750Y54768750D03*
X85725000Y127668750D03*
X85725000Y130968750D03*
X195262500Y89568750D03*
X195262500Y92868750D03*
X28575000Y127668750D03*
X28575000Y130968750D03*
D12*
X152400000Y66231250D03*
X152400000Y68281250D03*
D13*
X101806250Y129337500D03*
D14*
X101806250Y127637500D03*
X99806250Y127637500D03*
X99806250Y129537500D03*
D11*
X214312500Y89568750D03*
X214312500Y92868750D03*
D15*
X184775000Y59250000D03*
X182725000Y59250000D03*
D11*
X-2381250Y89568750D03*
X-2381250Y92868750D03*
D16*
X97916250Y140812500D03*
X103696250Y140812500D03*
D17*
X97581250Y138867500D03*
X98356250Y138867500D03*
D18*
X99056250Y138867500D03*
X99556250Y138867500D03*
X100056250Y138867500D03*
X100556250Y138867500D03*
X101056250Y138867500D03*
X101556250Y138867500D03*
X102056250Y138867500D03*
X102556250Y138867500D03*
D17*
X103256250Y138867500D03*
X104031250Y138867500D03*
D11*
X90487500Y70581250D03*
X90487500Y73881250D03*
X109537500Y70581250D03*
X109537500Y73881250D03*
X119062500Y89568750D03*
X119062500Y92868750D03*
X276225000Y108681250D03*
X276225000Y111981250D03*
X209550000Y108681250D03*
X209550000Y111981250D03*
D19*
X149750000Y68281250D03*
X149750000Y66231250D03*
D11*
X-4762500Y108681250D03*
X-4762500Y111981250D03*
X33337500Y70581250D03*
X33337500Y73881250D03*
D20*
X95250000Y129381250D03*
X95250000Y126406250D03*
D11*
X252412500Y108681250D03*
X252412500Y111981250D03*
X138112500Y89568750D03*
X138112500Y92868750D03*
D12*
X142081250Y51131250D03*
X142081250Y53181250D03*
D11*
X257175000Y51468750D03*
X257175000Y54768750D03*
X230981250Y70581250D03*
X230981250Y73881250D03*
X152400000Y108681250D03*
X152400000Y111981250D03*
X19050000Y108681250D03*
X19050000Y111981250D03*
X21431250Y51468750D03*
X21431250Y54768750D03*
X228600000Y108681250D03*
X228600000Y111981250D03*
D19*
X165893750Y61350000D03*
X165893750Y59300000D03*
D11*
X195262500Y51468750D03*
X195262500Y54768750D03*
D15*
X157956250Y65087500D03*
X155906250Y65087500D03*
D11*
X133350000Y108681250D03*
X133350000Y111981250D03*
X42862500Y89568750D03*
X42862500Y92868750D03*
X245268750Y89506250D03*
X245268750Y92806250D03*
X180975000Y127731250D03*
X180975000Y131031250D03*
X276225000Y127731250D03*
X276225000Y131031250D03*
D21*
X157495000Y48570000D03*
X159545000Y48570000D03*
D11*
X-4762500Y51468750D03*
X-4762500Y54768750D03*
D21*
X170425000Y52387500D03*
X172475000Y52387500D03*
D11*
X276225000Y89568750D03*
X276225000Y92868750D03*
X104775000Y127668750D03*
X104775000Y130968750D03*
X38100000Y108681250D03*
X38100000Y111981250D03*
X157162500Y89568750D03*
X157162500Y92868750D03*
X200025000Y127731250D03*
X200025000Y131031250D03*
X61912500Y89568750D03*
X61912500Y92868750D03*
X100012500Y89568750D03*
X100012500Y92868750D03*
X23812500Y89568750D03*
X23812500Y92868750D03*
D22*
X182230000Y61960000D03*
X184770000Y61960000D03*
X182230000Y64500000D03*
X184770000Y64500000D03*
X182230000Y67040000D03*
D23*
X184770000Y67040000D03*
D11*
X47625000Y51468750D03*
X47625000Y54768750D03*
X185737500Y70581250D03*
X185737500Y73881250D03*
X247650000Y127731250D03*
X247650000Y131031250D03*
X71437500Y70581250D03*
X71437500Y73881250D03*
X66675000Y127668750D03*
X66675000Y130968750D03*
X204787500Y70581250D03*
X204787500Y73881250D03*
D21*
X102393750Y134143750D03*
X104443750Y134143750D03*
D11*
X47625000Y127668750D03*
X47625000Y130968750D03*
X57150000Y108681250D03*
X57150000Y111981250D03*
D24*
X165537500Y53318750D03*
X165537500Y56218750D03*
X167837500Y56218750D03*
X167837500Y53318750D03*
D11*
X276225000Y70581250D03*
X276225000Y73881250D03*
X2381250Y70581250D03*
X2381250Y73881250D03*
D15*
X98093750Y134143750D03*
X96043750Y134143750D03*
D11*
X176212500Y89568750D03*
X176212500Y92868750D03*
X128587500Y70581250D03*
X128587500Y73881250D03*
D19*
X156368750Y73487500D03*
X156368750Y71437500D03*
D11*
X142875000Y127668750D03*
X142875000Y130968750D03*
X147637500Y70581250D03*
X147637500Y73881250D03*
D15*
X145256250Y65087500D03*
X143206250Y65087500D03*
D11*
X-9525000Y127731250D03*
X-9525000Y131031250D03*
D21*
X170425000Y57150000D03*
X172475000Y57150000D03*
D11*
X114300000Y108681250D03*
X114300000Y111981250D03*
D25*
X180400000Y52900000D03*
X186600000Y52900000D03*
X180400000Y56600000D03*
X186600000Y56600000D03*
D11*
X80962500Y89568750D03*
X80962500Y92868750D03*
X238125000Y51468750D03*
X238125000Y54768750D03*
D21*
X141775000Y49250000D03*
X143825000Y49250000D03*
D11*
X171450000Y108681250D03*
X171450000Y111981250D03*
X219075000Y127731250D03*
X219075000Y131031250D03*
X166687500Y70581250D03*
X166687500Y73881250D03*
X76200000Y108681250D03*
X76200000Y111981250D03*
X190500000Y108681250D03*
X190500000Y111981250D03*
X52387500Y70581250D03*
X52387500Y73881250D03*
X123825000Y51468750D03*
X123825000Y54768750D03*
D26*
X147606250Y62018750D03*
X148406250Y62018750D03*
X149206250Y62018750D03*
X150006250Y62018750D03*
X150806250Y62018750D03*
X151606250Y62018750D03*
X152406250Y62018750D03*
X153206250Y62018750D03*
X154006250Y62018750D03*
X154806250Y62018750D03*
X155606250Y62018750D03*
D27*
X157268750Y60356250D03*
X157268750Y59556250D03*
X157268750Y58756250D03*
X157268750Y57956250D03*
X157268750Y57156250D03*
X157268750Y56356250D03*
X157268750Y55556250D03*
X157268750Y54756250D03*
X157268750Y53956250D03*
X157268750Y53156250D03*
X157268750Y52356250D03*
D26*
X155606250Y50693750D03*
X154806250Y50693750D03*
X154006250Y50693750D03*
X153206250Y50693750D03*
X152406250Y50693750D03*
X151606250Y50693750D03*
X150806250Y50693750D03*
X150006250Y50693750D03*
X149206250Y50693750D03*
X148406250Y50693750D03*
X147606250Y50693750D03*
D27*
X145943750Y52356250D03*
X145943750Y53156250D03*
X145943750Y53956250D03*
X145943750Y54756250D03*
X145943750Y55556250D03*
X145943750Y56356250D03*
X145943750Y57156250D03*
X145943750Y57956250D03*
X145943750Y58756250D03*
X145943750Y59556250D03*
X145943750Y60356250D03*
D11*
X276225000Y51468750D03*
X276225000Y54768750D03*
X9525000Y127731250D03*
X9525000Y131031250D03*
M02*
